<svg xmlns="http://www.w3.org/2000/svg" viewBox="0 0 64 64" width="64" height="64">
  <defs>
    <linearGradient id="bg-grad" x1="0%" y1="0%" x2="100%" y2="100%">
      <stop offset="0%" stop-color="#4338ca"/>
      <stop offset="100%" stop-color="#7c3aed"/>
    </linearGradient>
  </defs>
  <!-- Fundo quadrado arredondado com gradiente índigo/violeta -->
  <rect x="2" y="2" width="60" height="60" rx="14" ry="14" fill="url(#bg-grad)"/>
  <!-- Borda sutil -->
  <rect x="2" y="2" width="60" height="60" rx="14" ry="14" fill="none" stroke="rgba(255,255,255,0.18)" stroke-width="1.5"/>
  <!-- Logo (cúpula/olho/livro) em branco, centralizada -->
  <g transform="translate(10, 10) scale(0.44)">
    <path fill-rule="evenodd" fill="white"
      d="M 10 50 A 40 40 0 0 1 90 50 L 90 74 L 50 90 L 10 74 Z M 16 54 Q 50 36 84 54 Q 50 66 16 54 Z M 12 65 L 50 90 L 50 82 L 20 68 Z M 88 65 L 50 90 L 50 82 L 80 68 Z"/>
  </g>
</svg>
