<svg xmlns="http://www.w3.org/2000/svg" viewBox="0 0 64 64" width="64" height="64">
  <defs>
    <linearGradient id="bg-grad" x1="0%" y1="0%" x2="100%" y2="100%">
      <stop offset="0%" stop-color="#1E40AF"/>
      <stop offset="100%" stop-color="#1E3A8A"/>
    </linearGradient>
  </defs>
  <!-- Fundo quadrado arredondado com gradiente azul -->
  <rect x="2" y="2" width="60" height="60" rx="14" ry="14" fill="url(#bg-grad)"/>
  <!-- Borda sutil -->
  <rect x="2" y="2" width="60" height="60" rx="14" ry="14" fill="none" stroke="rgba(255,255,255,0.18)" stroke-width="1.5"/>
  <!-- Logo Ancestral em branco, centralizada -->
  <g transform="translate(8, 8) scale(0.4)" fill="none" stroke="white" stroke-width="2.5" stroke-linecap="round" stroke-linejoin="round">
    <circle cx="35" cy="28" r="10" />
    <path d="M 35 38 L 35 55" />
    <path d="M 35 42 Q 20 45 18 55" />
    <path d="M 35 42 Q 50 45 52 55" />
    <circle cx="60" cy="50" r="7" />
    <path d="M 60 57 L 60 70" />
    <path d="M 60 60 Q 48 58 42 52" />
    <path d="M 45 48 Q 50 45 55 48" />
    <circle cx="50" cy="50" r="2" fill="white" />
  </g>
</svg>
